<svg xmlns="http://www.w3.org/2000/svg" version="1.1" xmlns:xlink="http://www.w3.org/1999/xlink" xmlns:svgjs="http://svgjs.dev/svgjs" width="2000" height="454" viewBox="0 0 2000 454"><g transform="matrix(1,0,0,1,-1.2121212121212466,0.7023586101953185)"><svg viewBox="0 0 396 90" data-background-color="#f5ba41" preserveAspectRatio="xMidYMid meet" height="454" width="2000" xmlns="http://www.w3.org/2000/svg" xmlns:xlink="http://www.w3.org/1999/xlink"><g id="tight-bounds" transform="matrix(1,0,0,1,0.2400000000000091,-0.13923408572154017)"><svg viewBox="0 0 395.52 90.27846817144308" height="90.27846817144308" width="395.52"><g><svg viewBox="0 0 395.52 90.27846817144308" height="90.27846817144308" width="395.52"><g><svg viewBox="0 0 395.52 90.27846817144308" height="90.27846817144308" width="395.52"><g id="textblocktransform"><svg viewBox="0 0 395.52 90.27846817144308" height="90.27846817144308" width="395.52" id="textblock"><g><svg viewBox="0 0 395.52 90.27846817144308" height="90.27846817144308" width="395.52"><g transform="matrix(1,0,0,1,0,0)"><svg width="395.52" viewBox="3.7 -35.5 197.14000000000001 45" height="90.27846817144308" data-palette-color="#ffffff"><path d="M7.25 0L4.85 0Q4.35 0 4.03-0.33 3.7-0.65 3.7-1.15L3.7-1.15 3.7-24.85Q3.7-25.35 4.03-25.68 4.35-26 4.85-26L4.85-26 7.1-26Q7.6-26 7.93-25.68 8.25-25.35 8.25-24.85L8.25-24.85 8.25-23.1Q9.4-24.65 11.15-25.58 12.9-26.5 15.35-26.5L15.35-26.5Q21-26.55 23.35-21.9L23.35-21.9Q24.5-24 26.7-25.25 28.9-26.5 31.7-26.5L31.7-26.5Q34.3-26.5 36.43-25.3 38.55-24.1 39.78-21.68 41-19.25 41-15.6L41-15.6 41-1.15Q41-0.65 40.68-0.33 40.35 0 39.85 0L39.85 0 37.5 0Q37 0 36.68-0.33 36.35-0.65 36.35-1.15L36.35-1.15 36.35-15.15Q36.35-17.95 35.55-19.55 34.75-21.15 33.4-21.8 32.05-22.45 30.45-22.45L30.45-22.45Q29.15-22.45 27.8-21.8 26.45-21.15 25.58-19.55 24.7-17.95 24.7-15.15L24.7-15.15 24.7-1.15Q24.7-0.65 24.38-0.33 24.05 0 23.55 0L23.55 0 21.2 0Q20.7 0 20.38-0.33 20.05-0.65 20.05-1.15L20.05-1.15 20.05-15.15Q20.05-17.95 19.2-19.55 18.35-21.15 17-21.8 15.65-22.45 14.15-22.45L14.15-22.45Q12.85-22.45 11.5-21.8 10.15-21.15 9.28-19.55 8.4-17.95 8.4-15.2L8.4-15.2 8.4-1.15Q8.4-0.65 8.08-0.33 7.75 0 7.25 0L7.25 0ZM51.7 0L49.3 0Q48.8 0 48.47-0.33 48.15-0.65 48.15-1.15L48.15-1.15 48.15-24.85Q48.15-25.35 48.47-25.68 48.8-26 49.3-26L49.3-26 51.55-26Q52.05-26 52.37-25.68 52.7-25.35 52.7-24.85L52.7-24.85 52.7-23.1Q53.85-24.65 55.6-25.58 57.35-26.5 59.8-26.5L59.8-26.5Q65.45-26.55 67.8-21.9L67.8-21.9Q68.95-24 71.15-25.25 73.35-26.5 76.15-26.5L76.15-26.5Q78.75-26.5 80.87-25.3 83-24.1 84.22-21.68 85.45-19.25 85.45-15.6L85.45-15.6 85.45-1.15Q85.45-0.65 85.12-0.33 84.8 0 84.3 0L84.3 0 81.95 0Q81.45 0 81.12-0.33 80.8-0.65 80.8-1.15L80.8-1.15 80.8-15.15Q80.8-17.95 80-19.55 79.2-21.15 77.85-21.8 76.5-22.45 74.9-22.45L74.9-22.45Q73.6-22.45 72.25-21.8 70.9-21.15 70.02-19.55 69.15-17.95 69.15-15.15L69.15-15.15 69.15-1.15Q69.15-0.65 68.82-0.33 68.5 0 68 0L68 0 65.65 0Q65.15 0 64.82-0.33 64.5-0.65 64.5-1.15L64.5-1.15 64.5-15.15Q64.5-17.95 63.65-19.55 62.8-21.15 61.45-21.8 60.1-22.45 58.6-22.45L58.6-22.45Q57.3-22.45 55.95-21.8 54.6-21.15 53.72-19.55 52.85-17.95 52.85-15.2L52.85-15.2 52.85-1.15Q52.85-0.65 52.52-0.33 52.2 0 51.7 0L51.7 0ZM101.6 0.5L101.6 0.5Q98.8 0.5 96.8-0.2 94.8-0.9 93.55-1.9 92.3-2.9 91.67-3.9 91.05-4.9 91-5.5L91-5.5Q90.95-6.05 91.35-6.35 91.75-6.65 92.15-6.65L92.15-6.65 94.4-6.65Q94.65-6.65 94.82-6.58 95-6.5 95.3-6.15L95.3-6.15Q95.95-5.45 96.75-4.75 97.55-4.05 98.72-3.6 99.9-3.15 101.65-3.15L101.65-3.15Q104.2-3.15 105.85-4.13 107.5-5.1 107.5-7L107.5-7Q107.5-8.25 106.82-9 106.15-9.75 104.42-10.35 102.7-10.95 99.7-11.6L99.7-11.6Q96.7-12.3 94.95-13.33 93.2-14.35 92.45-15.78 91.7-17.2 91.7-19L91.7-19Q91.7-20.85 92.8-22.58 93.9-24.3 96.02-25.4 98.15-26.5 101.35-26.5L101.35-26.5Q103.95-26.5 105.8-25.85 107.65-25.2 108.85-24.23 110.05-23.25 110.65-22.3 111.25-21.35 111.3-20.7L111.3-20.7Q111.35-20.2 111-19.88 110.65-19.55 110.2-19.55L110.2-19.55 108.1-19.55Q107.75-19.55 107.52-19.7 107.3-19.85 107.1-20.05L107.1-20.05Q106.6-20.7 105.92-21.35 105.25-22 104.17-22.43 103.1-22.85 101.35-22.85L101.35-22.85Q98.85-22.85 97.6-21.8 96.35-20.75 96.35-19.15L96.35-19.15Q96.35-18.2 96.9-17.45 97.45-16.7 99-16.1 100.55-15.5 103.6-14.8L103.6-14.8Q106.9-14.15 108.8-13.05 110.7-11.95 111.5-10.5 112.3-9.05 112.3-7.15L112.3-7.15Q112.3-5.05 111.1-3.3 109.9-1.55 107.5-0.53 105.1 0.5 101.6 0.5ZM121.79 0L119.29 0Q118.79 0 118.47-0.33 118.14-0.65 118.14-1.15L118.14-1.15 118.14-34.35Q118.14-34.85 118.47-35.18 118.79-35.5 119.29-35.5L119.29-35.5 121.79-35.5Q122.34-35.5 122.64-35.18 122.94-34.85 122.94-34.35L122.94-34.35 122.94-22.7Q124.29-24.4 126.24-25.45 128.19-26.5 131.19-26.5L131.19-26.5Q134.44-26.5 136.72-25.08 138.99-23.65 140.17-21.13 141.34-18.6 141.34-15.25L141.34-15.25 141.34-1.15Q141.34-0.65 141.04-0.33 140.74 0 140.19 0L140.19 0 137.69 0Q137.19 0 136.87-0.33 136.54-0.65 136.54-1.15L136.54-1.15 136.54-15Q136.54-18.5 134.84-20.48 133.14-22.45 129.84-22.45L129.84-22.45Q126.74-22.45 124.84-20.48 122.94-18.5 122.94-15L122.94-15 122.94-1.15Q122.94-0.65 122.64-0.33 122.34 0 121.79 0L121.79 0ZM159.19 0.5L159.19 0.5Q155.39 0.5 152.84-0.95 150.29-2.4 148.94-4.98 147.59-7.55 147.44-10.85L147.44-10.85Q147.39-11.7 147.39-13.03 147.39-14.35 147.44-15.15L147.44-15.15Q147.59-18.5 148.97-21.05 150.34-23.6 152.89-25.05 155.44-26.5 159.19-26.5L159.19-26.5Q162.94-26.5 165.49-25.05 168.04-23.6 169.42-21.05 170.79-18.5 170.94-15.15L170.94-15.15Q170.99-14.35 170.99-13.03 170.99-11.7 170.94-10.85L170.94-10.85Q170.79-7.55 169.44-4.98 168.09-2.4 165.54-0.95 162.99 0.5 159.19 0.5ZM159.19-3.35L159.19-3.35Q162.29-3.35 164.14-5.33 165.99-7.3 166.14-11.1L166.14-11.1Q166.19-11.85 166.19-13 166.19-14.15 166.14-14.9L166.14-14.9Q165.99-18.7 164.14-20.68 162.29-22.65 159.19-22.65L159.19-22.65Q156.09-22.65 154.22-20.68 152.34-18.7 152.24-14.9L152.24-14.9Q152.19-14.15 152.19-13 152.19-11.85 152.24-11.1L152.24-11.1Q152.34-7.3 154.22-5.33 156.09-3.35 159.19-3.35ZM180.89 9.5L178.44 9.5Q177.94 9.5 177.61 9.18 177.29 8.85 177.29 8.35L177.29 8.35 177.29-24.85Q177.29-25.35 177.61-25.68 177.94-26 178.44-26L178.44-26 180.74-26Q181.24-26 181.56-25.68 181.89-25.35 181.89-24.85L181.89-24.85 181.89-22.65Q183.09-24.3 185.09-25.4 187.09-26.5 190.09-26.5L190.09-26.5Q192.89-26.5 194.86-25.55 196.84-24.6 198.11-22.95 199.39-21.3 200.04-19.2 200.69-17.1 200.79-14.7L200.79-14.7Q200.84-13.9 200.84-13 200.84-12.1 200.79-11.3L200.79-11.3Q200.69-8.95 200.04-6.83 199.39-4.7 198.11-3.08 196.84-1.45 194.86-0.48 192.89 0.5 190.09 0.5L190.09 0.5Q187.19 0.5 185.21-0.58 183.24-1.65 181.99-3.25L181.99-3.25 181.99 8.35Q181.99 8.85 181.69 9.18 181.39 9.5 180.89 9.5L180.89 9.5ZM189.04-3.55L189.04-3.55Q191.64-3.55 193.11-4.67 194.59-5.8 195.24-7.63 195.89-9.45 195.99-11.55L195.99-11.55Q196.04-13 195.99-14.45L195.99-14.45Q195.89-16.55 195.24-18.38 194.59-20.2 193.11-21.33 191.64-22.45 189.04-22.45L189.04-22.45Q186.59-22.45 185.06-21.3 183.54-20.15 182.81-18.38 182.09-16.6 181.99-14.75L181.99-14.75Q181.94-13.95 181.94-12.85 181.94-11.75 181.99-10.9L181.99-10.9Q182.04-9.15 182.81-7.45 183.59-5.75 185.14-4.65 186.69-3.55 189.04-3.55Z" opacity="1" transform="matrix(1,0,0,1,0,0)" fill="#ffffff" class="wordmark-text-0" data-fill-palette-color="primary" id="text-0"></path></svg></g></svg></g></svg></g></svg></g></svg></g><defs></defs></svg><rect width="395.52" height="90.27846817144308" fill="none" stroke="none" visibility="hidden"></rect></g></svg></g></svg>